<?xml version="1.0" encoding="UTF-8"?>
<svg version="1.1" xmlns="http://www.w3.org/2000/svg" width="280" height="178">
<path d="M0 0 C3.61371248 1.21316666 6.94600772 2.93430064 10.32421875 4.6875 C11.85574585 5.48184448 11.85574585 5.48184448 13.41821289 6.29223633 C14.49707764 6.85579834 15.57594238 7.41936035 16.6875 8 C17.79279053 8.57580811 18.89808105 9.15161621 20.03686523 9.74487305 C29.45168295 14.67041601 38.74142661 19.78718977 48 25 C48 34.9 48 44.8 48 55 C62.89186932 47.03801046 77.77000091 39.05924283 92.5859375 30.95703125 C99.33264161 27.26838963 106.09416304 23.60719099 112.85766602 19.94946289 C118.13531962 17.09508569 123.40885042 14.23349852 128.67578125 11.359375 C129.76584473 10.76568115 130.8559082 10.1719873 131.97900391 9.56030273 C134.06972678 8.42139807 136.15930445 7.28038783 138.24755859 6.13696289 C139.19066895 5.62383545 140.1337793 5.11070801 141.10546875 4.58203125 C141.93199951 4.13061768 142.75853027 3.6792041 143.61010742 3.21411133 C144.39877197 2.81345459 145.18743652 2.41279785 146 2 C146.80332764 1.55277588 147.60665527 1.10555176 148.43432617 0.64477539 C151 -0 151 -0 153.83642578 1.14306641 C155.37532471 2.11252197 155.37532471 2.11252197 156.9453125 3.1015625 C157.5090004 3.44963959 158.07268829 3.79771667 158.65345764 4.15634155 C160.48865744 5.29544193 162.30642107 6.4595842 164.125 7.625 C165.38092377 8.41174454 166.6378479 9.19689432 167.89575195 9.98046875 C171.02587822 11.93580526 174.14259331 13.91143729 177.25604248 15.89318848 C179.84062288 17.53350559 182.43785136 19.15336693 185.03515625 20.7734375 C197.6836834 28.6836834 197.6836834 28.6836834 199 30 C199.14857186 32.94510994 199.2317816 35.86760856 199.2722168 38.81494141 C199.29653023 40.20280853 199.29653023 40.20280853 199.32133484 41.61871338 C199.46170516 50.16848588 199.53967133 58.71930862 199.60025311 67.26998329 C199.64123596 73.01790969 199.70160895 78.76413394 199.80932617 84.51123047 C199.9130381 90.0627976 199.96765064 95.612846 199.98771095 101.16532516 C200.003652 103.28096889 200.03689949 105.39655645 200.08786583 107.51164627 C200.46776645 124.07284688 200.46776645 124.07284688 196.88749695 128.77368164 C194.3183059 130.60243994 191.91963978 131.83045757 189 133 C188.04794678 133.62874023 187.09589355 134.25748047 186.11499023 134.90527344 C184.97332397 135.62505371 184.97332397 135.62505371 183.80859375 136.359375 C182.93452881 136.91302734 182.06046387 137.46667969 181.15991211 138.03710938 C179.29497164 139.21049493 177.42989316 140.38366114 175.56469727 141.55664062 C170.98365653 144.44531501 166.43480514 147.35770458 161.96875 150.421875 C161.19990479 150.94297852 160.43105957 151.46408203 159.63891602 152.00097656 C158.2046635 152.97761074 156.78001913 153.96855493 155.36694336 154.97558594 C153.43359375 156.28125 153.43359375 156.28125 150 158 C141.52626809 155.43427793 133.72789948 149.51454411 126.30615234 144.83227539 C124.28171768 143.57715178 122.23682436 142.35439757 120.17236328 141.16625977 C103.44152524 131.5016709 103.44152524 131.5016709 100.9909668 123.84893799 C99.83828835 116.54016941 100.11954863 109.32569038 101 102 C88.59995436 108.88970671 76.2327078 115.81665041 64 123 C54.86706751 128.36252454 45.66007029 133.57509418 36.40380859 138.72143555 C27.70378211 143.57176542 19.09782727 148.57432432 10.52539062 153.64648438 C9.58115234 154.20271484 8.63691406 154.75894531 7.6640625 155.33203125 C6.41810303 156.07030151 6.41810303 156.07030151 5.14697266 156.82348633 C3 158 3 158 0 159 C-2.66943359 157.59155273 -2.66943359 157.59155273 -5.8984375 155.43359375 C-6.48807281 155.04365738 -7.07770813 154.65372101 -7.68521118 154.25196838 C-9.58838395 152.9900553 -11.48168064 151.71413681 -13.375 150.4375 C-15.19208749 149.22765597 -17.01096211 148.02084627 -18.8344574 146.82067871 C-20.11035902 145.96253145 -21.36996047 145.07975012 -22.61390686 144.17590332 C-26.50942685 141.39699002 -30.08040491 139.53780839 -34.61499023 137.9765625 C-41.33588856 135.29677031 -46.38454469 132.46475995 -50 126 C-54.05266881 111.37518759 -52.05673371 94.57845149 -51.44195557 79.60961914 C-51.22583202 73.79211549 -51.13095368 67.97271741 -51.02539062 62.15234375 C-50.80118182 50.76320096 -50.44356798 39.38256458 -50 28 C-48.86788841 27.37241287 -48.86788841 27.37241287 -47.71290588 26.73214722 C-44.85061279 25.14498408 -41.98867909 23.55717641 -39.12696838 21.96896362 C-37.89999484 21.28817237 -36.67288795 20.60762136 -35.44563293 19.92733765 C-24.81905839 14.03653394 -14.25302677 8.04477343 -3.72631836 1.97705078 C-2.50261236 1.28446537 -1.25765843 0.62882922 0 0 Z " fill="#FC19DE" transform="translate(66,7)"/>
<path d="M0 0 C1.15862549 0.4937915 2.31725098 0.98758301 3.51098633 1.49633789 C4.7860809 2.06863967 6.05970753 2.64422057 7.33203125 3.22265625 C8.00924728 3.52819931 8.68646332 3.83374237 9.38420105 4.14854431 C10.80422389 4.79006748 12.2235932 5.43303906 13.64233398 6.07739258 C15.82162791 7.06664345 18.00341608 8.05022824 20.18554688 9.03320312 C21.56785917 9.65852083 22.95002595 10.28416035 24.33203125 10.91015625 C24.9861348 11.20495377 25.64023834 11.49975128 26.31416321 11.80348206 C30.88469012 13.88469012 30.88469012 13.88469012 32 15 C32.16041193 18.10085221 32.25963402 21.18187579 32.31640625 24.28515625 C32.33718735 25.21597519 32.35796844 26.14679413 32.37937927 27.1058197 C32.44497931 30.09130182 32.50380802 33.07687484 32.5625 36.0625 C32.6056753 38.08138976 32.64928925 40.1002702 32.69335938 42.11914062 C32.80067129 47.07933297 32.90190888 52.03961709 33 57 C53.04460451 46.73381212 53.04460451 46.73381212 72.875 36.0625 C82.32522825 30.84698507 91.90041395 25.89694469 101.50405884 20.97235107 C111.98976842 15.59250118 122.37432261 10.05357279 132.69140625 4.35546875 C142.43916027 -1 142.43916027 -1 145 -1 C145 12.86 145 26.72 145 41 C132.69667432 47.72479913 120.39083815 54.43787388 108 61 C112.63738902 63.72008196 117.30839796 66.37497188 122 69 C122.86705566 69.48662109 123.73411133 69.97324219 124.62744141 70.47460938 C127.40815524 72.02321232 130.20197702 73.54542898 133 75.0625 C133.89549561 75.56370361 134.79099121 76.06490723 135.71362305 76.58129883 C140.64280668 79.23236866 140.64280668 79.23236866 146.0859375 80.1015625 C150.17632562 78.55532999 153.85655987 76.51880896 157.625 74.3125 C164.64192407 70.25951476 171.72628177 66.63685911 179 63 C179 76.53 179 90.06 179 104 C173.658125 106.825625 168.31625 109.65125 162.8125 112.5625 C160.29653198 113.9074353 160.29653198 113.9074353 157.72973633 115.27954102 C156.38942143 115.98045267 155.04855584 116.68031271 153.70703125 117.37890625 C153.02008179 117.75108276 152.33313232 118.12325928 151.62536621 118.50671387 C148.86984507 119.92800361 146.66551889 121.01314216 143.52734375 120.95117188 C139.89439444 119.5839027 136.37322549 118.04215212 132.85546875 116.40234375 C132.17246704 116.08881958 131.48946533 115.77529541 130.7857666 115.45227051 C128.2503206 114.28651424 125.7191575 113.111461 123.1875 111.9375 C117.515625 109.318125 111.84375 106.69875 106 104 C106 90.14 106 76.28 106 62 C94.69383426 67.86245631 83.40766518 73.73487297 72.25 79.875 C64.06355687 84.37702437 55.80504661 88.72093253 47.5 93 C36.38348777 98.72840681 25.38579747 104.64775444 14.42578125 110.66894531 C10.7075758 112.70916835 6.98314288 114.73724578 3.25 116.75 C2.63543945 117.08563965 2.02087891 117.4212793 1.38769531 117.76708984 C-2.76963876 120 -2.76963876 120 -5 120 C-5.33 105.81 -5.66 91.62 -6 77 C-0.72 74.36 4.56 71.72 10 69 C14.29600915 66.74206988 18.58036255 64.46808519 22.8515625 62.1640625 C23.63015625 61.74898437 24.40875 61.33390625 25.2109375 60.90625 C26.23646729 60.35420898 26.23646729 60.35420898 27.28271484 59.79101562 C29 59 29 59 31 59 C31 58.34 31 57.68 31 57 C30.122229 56.72599365 29.24445801 56.4519873 28.34008789 56.16967773 C25.23090308 55.08086081 22.47033501 53.81541633 19.55859375 52.28515625 C18.56279297 51.76373047 17.56699219 51.24230469 16.54101562 50.70507812 C15.51685547 50.16302734 14.49269531 49.62097656 13.4375 49.0625 C11.89545898 48.25522461 11.89545898 48.25522461 10.32226562 47.43164062 C2.34770313 43.24021471 2.34770313 43.24021471 -0.51928711 41.25952148 C-2.88815401 39.80170834 -2.88815401 39.80170834 -5.36254883 40.10131836 C-8.77931756 41.26554364 -11.97703376 42.76810259 -15.19921875 44.37890625 C-16.21360771 44.87619484 -16.21360771 44.87619484 -17.24848938 45.38352966 C-19.3975768 46.43770262 -21.54280657 47.49941944 -23.6875 48.5625 C-25.84321871 49.62847252 -27.99972842 50.69270138 -30.15864563 51.75218201 C-31.49945108 52.41038793 -32.838378 53.07243705 -34.17521667 53.73866272 C-38.77542959 56 -38.77542959 56 -41 56 C-41 42.47 -41 28.94 -41 15 C-35.34875 12.15375 -29.6975 9.3075 -23.875 6.375 C-22.10237793 5.46927246 -20.32975586 4.56354492 -18.50341797 3.63037109 C-17.08379027 2.9264796 -15.66342757 2.22406772 -14.2421875 1.5234375 C-13.51717041 1.14614502 -12.79215332 0.76885254 -12.04516602 0.38012695 C-7.29086993 -1.9330801 -4.97662866 -2.40389122 0 0 Z " fill="#131FC4" transform="translate(71,26)"/>
<path d="M0 0 C0.88010742 0.46567383 1.76021484 0.93134766 2.66699219 1.41113281 C3.64796875 1.92675781 4.62894531 2.44238281 5.63964844 2.97363281 C6.65414062 3.51503906 7.66863281 4.05644531 8.71386719 4.61425781 C9.71289062 5.14019531 10.71191406 5.66613281 11.74121094 6.20800781 C17.69180395 9.35054321 23.59705135 12.56808695 29.46386719 15.86425781 C29.46386719 16.52425781 29.46386719 17.18425781 29.46386719 17.86425781 C24.65852092 20.40971664 19.85301625 22.95487609 15.04736328 25.49975586 C13.41190279 26.36588404 11.77648593 27.23209462 10.14111328 28.09838867 C7.79308299 29.34217549 5.44489694 30.58566777 3.09667969 31.82910156 C2.36329376 32.2176683 1.62990784 32.60623505 0.8742981 33.00657654 C-4.3083894 35.75038611 -4.3083894 35.75038611 -6.53613281 36.86425781 C-6.53613281 50.72425781 -6.53613281 64.58425781 -6.53613281 78.86425781 C-9.93362922 77.50525925 -12.32253142 76.50755126 -15.25097656 74.57910156 C-15.93869141 74.12986328 -16.62640625 73.680625 -17.33496094 73.21777344 C-18.04072266 72.75048828 -18.74648438 72.28320312 -19.47363281 71.80175781 C-20.85748814 70.89381046 -22.24161325 69.9862742 -23.62597656 69.07910156 C-24.36686523 68.56516846 -25.10775391 68.05123535 -25.87109375 67.52172852 C-27.99459894 66.20105458 -29.91922942 65.23044933 -32.19335938 64.24389648 C-36.20054945 62.35933835 -39.85429713 60.48505416 -42.53613281 56.86425781 C-44.80944848 49.98963381 -43.84911104 42.40798404 -43.41113281 35.30175781 C-43.34083162 33.31955577 -43.27696634 31.33711439 -43.21972656 29.35449219 C-43.06614781 24.51846496 -42.82514912 19.69400608 -42.53613281 14.86425781 C-36.13045597 11.63338862 -29.71562514 8.42155897 -23.2890625 5.23242188 C-21.62377758 4.40480067 -19.95992854 3.57426937 -18.29882812 2.73828125 C-16.53047957 1.85010618 -14.75253055 0.98111098 -12.97363281 0.11425781 C-12.02359375 -0.35496094 -11.07355469 -0.82417969 -10.09472656 -1.30761719 C-6.27210171 -2.54486371 -3.61179151 -1.61744841 0 0 Z " fill="#141FC4" transform="translate(72.5361328125,67.1357421875)"/>
<path d="M0 0 C3.41275538 1.36510215 5.83290084 2.38595512 8.78515625 4.3203125 C9.48189453 4.7740625 10.17863281 5.2278125 10.89648438 5.6953125 C11.61126953 6.16710937 12.32605469 6.63890625 13.0625 7.125 C13.75021484 7.57359375 14.43792969 8.0221875 15.14648438 8.484375 C16.61232529 9.44286093 18.06285503 10.42505805 19.49951172 11.42675781 C22.04006852 13.11549924 22.04006852 13.11549924 25.20751953 14.37792969 C29.01560718 16.23836086 31.30728672 17.70045121 34 21 C36.00031482 28.0732403 35.12208592 35.75134512 34.75 43 C34.6897565 45.03499936 34.63501239 47.07016943 34.5859375 49.10546875 C34.45417695 54.07454656 34.24746885 59.03539421 34 64 C33.24296783 64.41757317 33.24296783 64.41757317 32.47064209 64.84358215 C30.14099649 66.12979406 27.81268255 67.41839889 25.484375 68.70703125 C24.6907959 69.14470825 23.8972168 69.58238525 23.07958984 70.0333252 C16.95288441 73.42746984 10.96235206 77.00046943 5.015625 80.69921875 C1.3303966 82.28883152 -0.13638232 81.92915365 -4 81 C-7.04858398 79.66479492 -7.04858398 79.66479492 -10.24609375 77.98046875 C-11.41333984 77.37009766 -12.58058594 76.75972656 -13.78320312 76.13085938 C-15.00134551 75.48315459 -16.21944416 74.83536754 -17.4375 74.1875 C-18.65130553 73.55069376 -19.86549543 72.91461957 -21.08007812 72.27929688 C-26.78014218 69.28871172 -32.44271913 66.24924964 -38 63 C-34.90893248 59.68788211 -31.24948962 57.8365757 -27.26953125 55.76953125 C-26.60417358 55.41870483 -25.93881592 55.06787842 -25.2532959 54.7064209 C-22.77621108 53.4023878 -20.29405132 52.10801324 -17.8125 50.8125 C-12.264375 47.904375 -6.71625 44.99625 -1 42 C-0.67 28.14 -0.34 14.28 0 0 Z " fill="#7286F3" transform="translate(216,25)"/>
<path d="M0 0 C0 13.86 0 27.72 0 42 C-3.39749641 40.64100144 -5.78639861 39.64329345 -8.71484375 37.71484375 C-9.39490479 37.27052002 -10.07496582 36.82619629 -10.77563477 36.3684082 C-11.48905029 35.8962085 -12.20246582 35.42400879 -12.9375 34.9375 C-14.44516046 33.9502886 -15.9529756 32.96331339 -17.4609375 31.9765625 C-18.21600586 31.4805957 -18.97107422 30.98462891 -19.74902344 30.47363281 C-23.17319715 28.23195033 -26.6171432 26.02143096 -30.0625 23.8125 C-31.2200835 23.06905933 -32.37763885 22.32557482 -33.53515625 21.58203125 C-34.34855469 21.05996094 -35.16195312 20.53789063 -36 20 C-33.55805636 17.25765853 -30.93195718 15.72373 -27.703125 14.00390625 C-26.6615625 13.44509766 -25.62 12.88628906 -24.546875 12.31054688 C-23.45890625 11.73369141 -22.3709375 11.15683594 -21.25 10.5625 C-19.10900413 9.41866266 -16.96836989 8.27414813 -14.828125 7.12890625 C-13.81943359 6.59152832 -12.81074219 6.05415039 -11.77148438 5.50048828 C-9.43935593 4.23786835 -7.1446973 2.93439477 -4.859375 1.58984375 C-2 0 -2 0 0 0 Z " fill="#7286F3" transform="translate(66,104)"/>
<path d="M0 0 C2.36450597 1.20836241 4.60977685 2.47070922 6.84863281 3.89746094 C7.64914063 4.40535156 8.44964844 4.91324219 9.27441406 5.43652344 C10.098125 5.96503906 10.92183594 6.49355469 11.77050781 7.03808594 C12.57875 7.55113281 13.38699219 8.06417969 14.21972656 8.59277344 C16.66049684 10.14705595 19.09245163 11.71402234 21.52050781 13.28808594 C22.38353516 13.84689453 23.2465625 14.40570313 24.13574219 14.98144531 C24.95880859 15.52091797 25.781875 16.06039062 26.62988281 16.61621094 C27.3772168 17.10508789 28.12455078 17.59396484 28.89453125 18.09765625 C29.69938965 18.68691895 29.69938965 18.68691895 30.52050781 19.28808594 C30.52050781 19.61808594 30.52050781 19.94808594 30.52050781 20.28808594 C23.74764841 20.31382982 16.97480201 20.33111442 10.2019043 20.34301758 C7.90665211 20.34798948 5.61140298 20.35476934 3.31616211 20.36352539 C-10.6532598 20.41541094 -24.53881978 20.22111064 -38.47949219 19.28808594 C-35.2202437 16.68118398 -31.78480563 14.74408345 -28.10449219 12.78417969 C-27.49814941 12.4602272 -26.89180664 12.13627472 -26.26708984 11.80250549 C-24.33954685 10.77372283 -22.40954071 9.74965888 -20.47949219 8.72558594 C-19.18245944 8.03382434 -17.88558282 7.34176992 -16.58886719 6.64941406 C-13.22301856 4.85475505 -9.85588432 3.0628633 -6.47949219 1.28808594 C-5.79113281 0.84730713 -5.10277344 0.40652832 -4.39355469 -0.04760742 C-2.47949219 -0.71191406 -2.47949219 -0.71191406 0 0 Z " fill="#FA1BDE" transform="translate(217.4794921875,67.7119140625)"/>
<path d="M0 0 C23.43 0 46.86 0 71 0 C71 0.99 71 1.98 71 3 C69.75126099 3.66588135 69.75126099 3.66588135 68.47729492 4.34521484 C65.3848374 5.99518764 62.29312454 7.64653926 59.2019043 9.29882812 C57.8646347 10.01324873 56.52707188 10.72712075 55.18920898 11.44042969 C53.2646853 12.46665175 51.34122965 13.49485119 49.41796875 14.5234375 C48.26063232 15.14138184 47.1032959 15.75932617 45.91088867 16.39599609 C42.93458603 17.98275165 42.93458603 17.98275165 40 20 C35.3360162 19.68939342 31.85535112 18.14095345 27.75390625 15.98046875 C26.58666016 15.37009766 25.41941406 14.75972656 24.21679688 14.13085938 C22.99865449 13.48315459 21.78055584 12.83536754 20.5625 12.1875 C19.34869447 11.55069376 18.13450457 10.91461957 16.91992188 10.27929688 C11.21985782 7.28871172 5.55728087 4.24924964 0 1 C0 0.67 0 0.34 0 0 Z " fill="#7584F2" transform="translate(178,87)"/>
<path d="M0 0 C23.02448545 -0.12648678 45.9914385 0.10135877 69 1 C63.67087581 5.52188924 57.67177715 8.56358853 51.50732422 11.76538086 C49.49845248 12.81330726 47.5014218 13.88179239 45.50390625 14.95117188 C44.22202838 15.62108336 42.9394975 16.2897471 41.65625 16.95703125 C40.49931641 17.56522705 39.34238281 18.17342285 38.15039062 18.80004883 C34.67954362 20.12205852 33.44099877 20.24485937 30 19 C28.12147817 18.06253893 26.28035686 17.0481279 24.47265625 15.98046875 C23.43302734 15.37009766 22.39339844 14.75972656 21.32226562 14.13085938 C19.70868164 13.16889648 19.70868164 13.16889648 18.0625 12.1875 C16.99064453 11.55779297 15.91878906 10.92808594 14.81445312 10.27929688 C4.19288447 4.01158484 4.19288447 4.01158484 0 1 C0 0.67 0 0.34 0 0 Z " fill="#FB1ADE" transform="translate(33,83)"/>
<path d="M0 0 C0 13.53 0 27.06 0 41 C-4.78099584 38.60950208 -9.06727556 36.45692737 -13.48828125 33.6171875 C-14.44154297 33.00746094 -15.39480469 32.39773437 -16.37695312 31.76953125 C-17.83004883 30.83173828 -17.83004883 30.83173828 -19.3125 29.875 C-20.30056641 29.24207031 -21.28863281 28.60914062 -22.30664062 27.95703125 C-25.88717618 25.66100368 -29.4608575 23.35942834 -33 21 C-33 20.34 -33 19.68 -33 19 C-30.70695407 17.45290776 -28.42259802 16.03699578 -26.03515625 14.6484375 C-25.32725449 14.22954254 -24.61935272 13.81064758 -23.88999939 13.37905884 C-22.38971482 12.493075 -20.88733214 11.61063606 -19.38305664 10.73144531 C-17.07187334 9.38047904 -14.76690345 8.01940219 -12.46289062 6.65625 C-11.00816428 5.79888202 -9.55309739 4.94209151 -8.09765625 4.0859375 C-7.4028566 3.6766098 -6.70805695 3.2672821 -5.99220276 2.84555054 C-1.11753735 0 -1.11753735 0 0 0 Z " fill="#131FC4" transform="translate(250,47)"/>
<path d="M0 0 C0.88010742 0.46567383 1.76021484 0.93134766 2.66699219 1.41113281 C3.64796875 1.92675781 4.62894531 2.44238281 5.63964844 2.97363281 C6.65414062 3.51503906 7.66863281 4.05644531 8.71386719 4.61425781 C9.71289062 5.14019531 10.71191406 5.66613281 11.74121094 6.20800781 C17.69180395 9.35054321 23.59705135 12.56808695 29.46386719 15.86425781 C29.46386719 16.19425781 29.46386719 16.52425781 29.46386719 16.86425781 C20.37155918 16.91053845 11.27929153 16.94610518 2.18689156 16.96788216 C-2.03479031 16.97833246 -6.25639176 16.99251426 -10.47802734 17.01513672 C-14.54990558 17.03682084 -18.62170634 17.04881704 -22.69363785 17.0540123 C-24.24942368 17.05771605 -25.80520513 17.06494827 -27.3609581 17.07571793 C-29.53516656 17.09017419 -31.70905223 17.09223825 -33.88330078 17.09130859 C-35.12240204 17.09574982 -36.3615033 17.10019104 -37.63815308 17.10476685 C-40.53613281 16.86425781 -40.53613281 16.86425781 -42.53613281 14.86425781 C-36.13045597 11.63338862 -29.71562514 8.42155897 -23.2890625 5.23242188 C-21.62377758 4.40480067 -19.95992854 3.57426937 -18.29882812 2.73828125 C-16.53047957 1.85010618 -14.75253055 0.98111098 -12.97363281 0.11425781 C-12.02359375 -0.35496094 -11.07355469 -0.82417969 -10.09472656 -1.30761719 C-6.27210171 -2.54486371 -3.61179151 -1.61744841 0 0 Z " fill="#7583F2" transform="translate(72.5361328125,67.1357421875)"/>
</svg>
